<svg width="64" height="64" viewBox="-32 -32 128 128" fill="none" xmlns="http://www.w3.org/2000/svg">
<path fill-rule="evenodd" clip-rule="evenodd" d="M6 3C2.68629 3 0 5.68629 0 9V43C0 46.3137 2.68629 49 6 49H58C61.3137 49 64 46.3137 64 43V9C64 5.68629 61.3137 3 58 3H6ZM12.0357 55C10.3591 55 9 56.3591 9 58.0357C9 59.7123 10.3591 61.0714 12.0357 61.0714H52.1071C53.7837 61.0714 55.1429 59.7123 55.1429 58.0357C55.1429 56.3591 53.7837 55 52.1071 55H12.0357Z" fill="url(#paint0_linear_99_592)"/>
<rect x="26.3135" y="15.0001" width="4" height="16" rx="2" transform="rotate(45 26.3135 15.0001)" fill="white"/>
<rect x="15" y="26.3136" width="4" height="16" rx="2" transform="rotate(-45 15 26.3136)" fill="white"/>
<rect width="4" height="16" rx="2" transform="matrix(-0.707107 0.707107 0.707107 0.707107 38.3145 15.0001)" fill="white"/>
<rect width="4" height="16" rx="2" transform="matrix(-0.707107 -0.707107 -0.707107 0.707107 49.6279 26.3136)" fill="white"/>
<defs>
<linearGradient id="paint0_linear_99_592" x1="18.1333" y1="3" x2="42.5719" y2="62.8523" gradientUnits="userSpaceOnUse">
<stop stop-color="#9B9FFF"/>
<stop offset="1" stop-color="#656AE8"/>
</linearGradient>
</defs>
</svg>
