<svg width="64" height="66" viewBox="-32 -32 128 128" fill="none" xmlns="http://www.w3.org/2000/svg">
<path d="M4.33369 14.2654L28.3337 1.89044C30.634 0.704343 33.366 0.704345 35.6663 1.89044L59.6663 14.2654C62.3278 15.6377 64 18.3815 64 21.3759V44.6241C64 47.6185 62.3278 50.3623 59.6663 51.7346L35.6663 64.1096C33.366 65.2957 30.634 65.2957 28.3337 64.1096L4.33369 51.7346C1.67225 50.3623 0 47.6185 0 44.6241V21.3759C0 18.3815 1.67225 15.6377 4.33369 14.2654Z" fill="url(#paint0_linear_99_593)"/>
<rect x="29.9287" y="31.9286" width="4.14286" height="20.7143" rx="2" fill="white"/>
<rect x="32" y="35.5164" width="4.14286" height="20.7143" rx="2" transform="rotate(-120 32 35.5164)" fill="white"/>
<rect width="4.14286" height="20.7143" rx="2" transform="matrix(0.5 -0.866025 -0.866025 -0.5 32.332 35.5164)" fill="white"/>
<defs>
<linearGradient id="paint0_linear_99_593" x1="18.1333" y1="-4.8846e-07" x2="48.4375" y2="65.302" gradientUnits="userSpaceOnUse">
<stop stop-color="#9B9FFF"/>
<stop offset="1" stop-color="#656AE8"/>
</linearGradient>
</defs>
</svg>
