<svg width="64" height="64" viewBox="-32 -32 128 128" fill="none" xmlns="http://www.w3.org/2000/svg">
<circle cx="32" cy="32" r="32" fill="url(#paint0_linear_99_587)"/>
<path d="M34.2352 24.1884C34.2349 23.0637 34.5659 21.9642 35.1862 21.0289C35.8066 20.0936 36.6884 19.3645 37.7203 18.9339C38.7521 18.5033 39.8876 18.3905 40.9832 18.6097C42.0787 18.8289 43.0851 19.3704 43.875 20.1655C44.6649 20.9607 45.2029 21.9739 45.421 23.077C45.639 24.18 45.5272 25.3234 45.0999 26.3626C44.6725 27.4017 43.9487 28.2898 43.02 28.9147C42.0913 29.5396 40.9994 29.8731 39.8824 29.8731C39.2895 29.8731 38.7209 30.1103 38.3016 30.5325C37.8823 30.9546 37.6468 31.5272 37.6468 32.1242C37.6468 32.7212 37.8823 33.2938 38.3016 33.716C38.7209 34.1381 39.2895 34.3753 39.8824 34.3753C45.47 34.3753 50 29.8138 50 24.1876C50 18.5614 45.4699 14 39.8824 14C34.2949 14 29.764 18.5614 29.764 24.1876C29.764 24.7846 29.9996 25.3572 30.4188 25.7794C30.8381 26.2015 31.4067 26.4387 31.9996 26.4387C32.5926 26.4387 33.1612 26.2015 33.5805 25.7794C33.9997 25.3572 34.2352 24.7854 34.2352 24.1884ZM29.764 39.8124C29.764 41.3203 29.1691 42.7664 28.1102 43.8326C27.0513 44.8989 25.6151 45.4979 24.1176 45.4979C22.6201 45.4979 21.1839 44.8989 20.125 43.8326C19.0661 42.7664 18.4712 41.3203 18.4712 39.8124C18.4711 39.0657 18.6171 38.3263 18.9008 37.6364C19.1845 36.9465 19.6004 36.3197 20.1247 35.7917C20.649 35.2636 21.2715 34.8448 21.9566 34.559C22.6417 34.2732 23.376 34.1261 24.1176 34.1261C24.7105 34.1261 25.2791 33.889 25.6984 33.4668C26.1177 33.0447 26.3532 32.4721 26.3532 31.8751C26.3532 31.278 26.1177 30.7055 25.6984 30.2833C25.2791 29.8611 24.7105 29.624 24.1176 29.624C18.5308 29.624 14 34.1847 14 39.8124C14 45.4386 18.5301 50 24.1176 50C29.7059 50 34.2352 45.4386 34.2352 39.8124C34.2352 39.2154 33.9997 38.6428 33.5805 38.2206C33.1612 37.7985 32.5926 37.5613 31.9996 37.5613C31.4067 37.5613 30.8381 37.7985 30.4188 38.2206C29.9996 38.6428 29.764 39.2154 29.764 39.8124Z" fill="white"/>
<path d="M29.764 23.9596V39.9175H34.2352V23.9596H29.764Z" fill="white"/>
<defs>
<linearGradient id="paint0_linear_99_587" x1="18.1333" y1="-4.73658e-07" x2="46.9333" y2="64" gradientUnits="userSpaceOnUse">
<stop stop-color="#9B9FFF"/>
<stop offset="1" stop-color="#656AE8"/>
</linearGradient>
</defs>
</svg>
