<svg width="64" height="64" viewBox="-32 -32 128 128" fill="none" xmlns="http://www.w3.org/2000/svg">
<path fill-rule="evenodd" clip-rule="evenodd" d="M6 0C2.68629 0 0 2.68628 0 5.99999V36.8315C0 40.1452 2.68629 42.8315 5.99999 42.8315H53.5916C56.9053 42.8315 59.5916 40.1452 59.5916 36.8315V6C59.5916 2.68629 56.9053 0 53.5916 0H6ZM11.2067 48.4182C9.64559 48.4182 8.38007 49.6837 8.38007 51.2448C8.38007 52.8059 9.64559 54.0714 11.2067 54.0714H48.518C50.0791 54.0714 51.3446 52.8059 51.3446 51.2448C51.3446 49.6837 50.0791 48.4182 48.518 48.4182H11.2067Z" fill="url(#paint0_linear_99_586)"/>
<rect x="37" y="16" width="27" height="48" rx="6" fill="url(#paint1_linear_99_586)"/>
<rect x="43.75" y="20" width="13.5" height="4" rx="2" fill="white"/>
<rect x="4" y="4" width="18" height="4" rx="2" fill="white"/>
<rect x="4" y="22" width="18" height="4" rx="2" transform="rotate(-90 4 22)" fill="white"/>
<rect x="19.5566" y="22.3848" width="22" height="4" rx="2" transform="rotate(-135 19.5566 22.3848)" fill="white"/>
<defs>
<linearGradient id="paint0_linear_99_586" x1="16.8843" y1="-4.00178e-07" x2="39.6395" y2="55.7296" gradientUnits="userSpaceOnUse">
<stop stop-color="#9B9FFF"/>
<stop offset="1" stop-color="#656AE8"/>
</linearGradient>
<linearGradient id="paint1_linear_99_586" x1="44.65" y1="16" x2="72.8061" y2="51.1951" gradientUnits="userSpaceOnUse">
<stop stop-color="#9B9FFF"/>
<stop offset="1" stop-color="#656AE8"/>
</linearGradient>
</defs>
</svg>
